<svg width="965" height="174" viewBox="0 0 965 174" fill="none" xmlns="http://www.w3.org/2000/svg">
<path d="M882.556 173.96C873.667 173.96 865.444 171.532 857.889 166.677C850.333 161.679 844.259 154.824 839.667 146.113C835.222 137.401 833 127.405 833 116.123C833 105.984 835.222 96.9154 839.667 88.9182C844.111 80.7782 850.185 74.3518 857.889 69.6392C865.741 64.9265 874.481 62.5702 884.111 62.5702C890.63 62.5702 896.037 63.5699 900.333 65.5692C904.63 67.5685 908.259 69.9962 911.222 72.8524L912.111 72.4239V28.2964C912.111 26.7255 911.815 25.7259 911.222 25.2975C910.63 24.869 909.519 24.5834 907.889 24.4406L894.333 23.798L893.667 20.5848L929.667 3.23371C931.444 2.37687 933 1.73423 934.333 1.30581C935.815 0.734586 937.37 0.448975 939 0.448975C940.778 0.448975 942.481 1.09161 944.111 2.37688C945.889 3.51933 946.778 5.94705 946.778 9.66005V146.113C946.778 148.54 948.185 149.826 951 149.968L964.556 150.611L965 153.824L929.222 171.175C927.444 172.032 925.815 172.675 924.333 173.103C923 173.674 921.518 173.96 919.889 173.96C918.111 173.96 916.333 173.246 914.556 171.818C912.926 170.533 912.111 168.105 912.111 164.535V157.037L911.444 156.823C908.926 161.964 905.074 166.106 899.889 169.247C894.852 172.389 889.074 173.96 882.556 173.96ZM895.444 152.11C900.481 152.11 904.333 150.611 907 147.612C909.815 144.47 911.519 140.115 912.111 134.545V93.845C910.63 88.4184 907.889 84.4912 903.889 82.0634C900.037 79.4929 895.963 78.2076 891.667 78.2076C884.852 78.2076 879.222 81.2066 874.778 87.2045C870.333 93.0596 868.111 100.843 868.111 110.554C868.111 117.694 869.148 124.477 871.222 130.904C873.444 137.187 876.63 142.328 880.778 146.327C884.926 150.183 889.815 152.11 895.444 152.11Z" fill="#1E1E1E"/>
<path d="M695.774 171.567V168.025L705.764 161.162C707.392 160.129 708.576 159.096 709.316 158.063C710.056 157.03 710.426 155.406 710.426 153.192V87.4437C710.426 85.8203 710.056 84.7872 709.316 84.3444C708.724 83.9017 707.688 83.6065 706.208 83.4589L692.444 82.7948L692 79.4742L727.964 61.5427C729.74 60.6572 731.294 59.9931 732.626 59.5503C734.106 58.96 735.586 58.6648 737.066 58.6648C738.99 58.6648 740.766 59.3289 742.394 60.6572C744.022 61.8379 744.836 64.3468 744.836 68.184V79.4742L745.724 79.6955C749.128 74.0873 753.42 69.2171 758.6 65.0847C763.78 60.8048 770.662 58.6648 779.246 58.6648C786.498 58.6648 793.084 60.1406 799.004 63.0923C804.924 66.044 809.586 70.6191 812.99 76.8176C816.542 82.8686 818.318 90.7644 818.318 100.505V153.192C818.318 155.406 818.688 157.03 819.428 158.063C820.316 159.096 821.5 160.129 822.98 161.162L833.192 168.025V171.567H769.256V168.025L779.246 161.162C780.874 160.129 782.058 159.096 782.798 158.063C783.538 157.03 783.908 155.406 783.908 153.192V105.375C783.908 97.996 782.576 92.0926 779.912 87.6651C777.248 83.2376 772.882 81.0238 766.814 81.0238C760.598 81.0238 755.344 83.7541 751.052 89.2147C746.908 94.6753 744.836 102.35 744.836 112.238V153.192C744.836 155.406 745.206 157.03 745.946 158.063C746.834 159.096 748.018 160.129 749.498 161.162L759.71 168.025V171.567H695.774Z" fill="#1E1E1E"/>
<path d="M483.164 173.78C472.212 173.78 462.295 171.271 453.415 166.254C444.683 161.088 437.728 154.152 432.548 145.444C427.516 136.737 425 126.996 425 116.223C425 105.449 427.516 95.7822 432.548 87.2223C437.728 78.5149 444.683 71.5784 453.415 66.413C462.147 61.2475 471.916 58.6648 482.72 58.6648C492.932 58.6648 501.515 60.8048 508.471 65.0847C515.575 69.3647 520.977 75.0466 524.677 82.1307C528.377 89.2147 530.228 97.1105 530.228 105.818C530.228 106.999 530.153 108.327 530.005 109.803C530.005 111.131 529.932 112.238 529.784 113.123H459.632C460.815 124.045 464.516 132.973 470.732 139.91C476.948 146.846 485.31 150.315 495.818 150.315C503.366 150.315 509.878 148.322 515.354 144.337C520.83 140.205 524.678 135.187 526.898 129.284L530.893 129.948C530.153 137.327 527.86 144.411 524.012 151.2C520.312 157.841 515.058 163.302 508.25 167.582C501.442 171.714 493.08 173.78 483.164 173.78ZM459.41 99.398H488.27C493.597 99.398 496.262 96.8153 496.262 91.6499C496.262 87.0747 494.856 82.9424 492.044 79.2528C489.232 75.5632 485.457 73.7184 480.721 73.7184C474.949 73.7184 470.14 76.0797 466.292 80.8024C462.592 85.3775 460.298 91.5761 459.41 99.398Z" fill="#1E1E1E"/>
<path d="M287.773 171.567V168.025L297.764 161.162C299.392 160.129 300.576 159.096 301.316 158.063C302.056 157.03 302.426 155.406 302.426 153.192V87.4437C302.426 85.8203 302.056 84.7872 301.316 84.3444C300.724 83.9017 299.688 83.6065 298.208 83.4589L284.444 82.7948L284 79.4742L319.964 61.5427C321.74 60.6572 323.294 59.9931 324.626 59.5503C326.106 58.96 327.586 58.6648 329.066 58.6648C330.99 58.6648 332.766 59.3289 334.394 60.6572C336.022 61.8379 336.836 64.3468 336.836 68.184V79.4742L337.724 79.6955C341.128 74.0873 345.42 69.2171 350.6 65.0847C355.78 60.8048 362.662 58.6648 371.246 58.6648C378.498 58.6648 385.084 60.1406 391.004 63.0923C396.924 66.044 401.586 70.6191 404.99 76.8176C408.542 82.8686 410.318 90.7644 410.318 100.505V153.192C410.318 155.406 410.688 157.03 411.428 158.063C412.316 159.096 413.5 160.129 414.98 161.162L425.192 168.025V171.567H361.256V168.025L371.246 161.162C372.874 160.129 374.058 159.096 374.798 158.063C375.538 157.03 375.908 155.406 375.908 153.192V105.375C375.908 97.996 374.576 92.0926 371.911 87.6651C369.247 83.2376 364.882 81.0238 358.814 81.0238C352.598 81.0238 347.344 83.7541 343.052 89.2147C338.908 94.6753 336.836 102.35 336.836 112.238V153.192C336.836 155.406 337.206 157.03 337.946 158.063C338.834 159.096 340.018 160.129 341.498 161.162L351.71 168.025V171.567H287.773Z" fill="#1E1E1E"/>
<path d="M230.164 174C219.212 174 209.296 171.491 200.416 166.473C191.684 161.308 184.728 154.371 179.548 145.664C174.516 136.956 172 127.216 172 116.442C172 105.668 174.516 96.0017 179.548 87.4418C184.728 78.7344 191.684 71.7979 200.416 66.6325C209.148 61.467 218.916 58.8843 229.72 58.8843C239.932 58.8843 248.516 61.0243 255.472 65.3042C262.576 69.5841 267.978 75.2661 271.678 82.3502C275.378 89.4342 277.228 97.33 277.228 106.037C277.228 107.218 277.154 108.546 277.006 110.022C277.006 111.35 276.932 112.457 276.784 113.343H206.632C207.816 124.264 211.516 133.193 217.732 140.129C223.948 147.066 232.31 150.534 242.818 150.534C250.366 150.534 256.878 148.542 262.354 144.557C267.83 140.425 271.678 135.407 273.898 129.503L277.893 130.167C277.153 137.547 274.859 144.631 271.012 151.42C267.312 158.061 262.058 163.521 255.25 167.801C248.442 171.934 240.08 174 230.164 174ZM206.41 99.6175H235.27C240.598 99.6175 243.262 97.0348 243.262 91.8693C243.262 87.2942 241.856 83.1619 239.044 79.4723C236.232 75.7827 232.458 73.9379 227.722 73.9379C221.95 73.9379 217.14 76.2992 213.292 81.0219C209.592 85.597 207.298 91.7955 206.41 99.6175Z" fill="#1E1E1E"/>
<path d="M617.472 0C632.896 2.05086e-05 649.14 3.88947 657.358 8.18164C664.161 10.7433 669 17.2942 669 24.9727C669 34.8828 660.941 42.9167 651 42.917C641.059 42.917 633 34.883 633 24.9727C633 22.3002 633.586 19.7642 634.637 17.4854C627.986 12.5139 618.546 14.0068 613.55 14.0068C606.89 14.0068 601.709 18.1476 597.27 23.459C592.978 28.6229 590.832 36.7381 590.832 47.8037V60.8613H669.283V153.148C669.283 155.361 669.654 156.984 670.394 158.017C671.134 159.049 672.244 160.082 673.724 161.115L683.936 167.977V171.518H620V167.977L630.212 161.115C631.692 160.083 632.802 159.049 633.542 158.017C634.282 156.984 634.651 155.361 634.651 153.148V74.582H590.832V153.148C590.832 155.361 591.202 156.984 591.941 158.017C592.829 159.049 594.088 160.082 595.716 161.115L606.594 167.977V171.518H541.548V167.977L551.76 161.115C553.388 160.083 554.572 159.049 555.312 158.017C556.051 156.984 556.422 155.361 556.422 153.148V74.582H533.999V60.8613H556.422V52.2295C556.422 42.6396 558.345 34.525 562.193 27.8857C566.041 21.0988 570.999 15.7131 577.067 11.7295C583.283 7.59834 589.944 4.64744 597.048 2.87695C604.152 0.95898 610.96 0 617.472 0Z" fill="#1E1E1E"/>
<path d="M128.101 79.4659C136.709 79.9707 142.962 84.3657 147.848 89.5614C155.443 97.6378 160.113 106.211 159.998 120.841C159.865 135.064 154.009 148.644 143.739 158.561C136.719 165.401 126.477 170.587 116.901 172.709C109.972 174.244 102.29 173.936 95.1561 173.933L73.5422 173.923L0.11463 173.882C0.797532 170.806 1.19021 167.735 1.92832 164.631C3.59812 157.61 6.27853 151.647 9.86146 145.452C16.1012 135.066 26.035 125.011 37.585 120.663C48.0662 116.69 59.7093 117.021 69.9435 121.584C79.6761 125.902 87.2397 133.939 90.9206 143.87C92.3899 143.152 93.3359 142.773 94.8773 142.216C86.5051 121.528 94.7156 95.5172 113.45 83.3653C116.604 81.3201 121.889 79.4659 128.101 79.4659ZM0.01376 0.490351C21.2658 0.456801 20.6278 0.467291 42.5316 0.456823L56.6415 0.448975C62.2785 0.448975 70.4057 0.448978 75.726 0.448975C108.637 0.448975 125.57 27.9787 127.089 44.6364C128.608 61.294 126.076 67.0602 121.519 71.3895C116.962 75.7187 114.328 77.0768 110.38 77.9516C101.266 79.9707 95.0298 78.2923 83.7647 73.1948C71.8444 67.8661 62.5455 58.053 57.9143 45.9163C56.7603 46.3792 55.3061 47.1299 54.1603 47.681C54.9362 51.093 56.2038 54.1514 56.6415 57.7489C58.7919 75.427 54.497 94.5189 32.9153 94.5591C24.1847 94.4965 15.8355 90.9944 9.70422 84.8234C2.24437 77.4337 -0.216748 68.9811 0.0147489 58.8028C0.132987 53.6027 0.00735374 48.1647 0.00980432 42.9468L0.01376 0.490351Z" fill="#1E1E1E"/>
</svg>
